<svg xmlns="http://www.w3.org/2000/svg" xmlns:xlink="http://www.w3.org/1999/xlink" width="400" zoomAndPan="magnify" viewBox="0 0 300 149.999998" height="200" preserveAspectRatio="xMidYMid meet" version="1.0"><defs><g><g id="id1"/></g></defs><g fill="rgb(100%, 47.839355%, 0%)" fill-opacity="1"><g transform="translate(7.598347, 71.749652)"><g><path d="M 32.328125 -35.640625 C 32.085938 -32.453125 31.96875 -29.597656 31.96875 -27.078125 C 31.96875 -25.503906 32.019531 -24.234375 32.125 -23.265625 L 30.96875 -23.265625 C 30.15625 -27.390625 29.050781 -30.289062 27.65625 -31.96875 C 26.269531 -33.644531 24.367188 -34.484375 21.953125 -34.484375 L 20.796875 -34.484375 L 20.796875 -5.734375 C 20.796875 -4.328125 20.9375 -3.304688 21.21875 -2.671875 C 21.5 -2.035156 22 -1.609375 22.71875 -1.390625 C 23.445312 -1.171875 24.597656 -1.039062 26.171875 -1 L 26.171875 0 C 21.941406 -0.101562 18.753906 -0.15625 16.609375 -0.15625 C 14.492188 -0.15625 11.425781 -0.101562 7.40625 0 L 7.40625 -1 C 8.976562 -1.039062 10.125 -1.171875 10.84375 -1.390625 C 11.570312 -1.609375 12.078125 -2.035156 12.359375 -2.671875 C 12.640625 -3.304688 12.78125 -4.328125 12.78125 -5.734375 L 12.78125 -34.484375 L 11.6875 -34.484375 C 10.070312 -34.484375 8.703125 -34.128906 7.578125 -33.421875 C 6.453125 -32.722656 5.484375 -31.554688 4.671875 -29.921875 C 3.867188 -28.296875 3.1875 -26.078125 2.625 -23.265625 L 1.453125 -23.265625 C 1.554688 -24.234375 1.609375 -25.503906 1.609375 -27.078125 C 1.609375 -29.597656 1.492188 -32.453125 1.265625 -35.640625 C 4.316406 -35.546875 9.5 -35.5 16.8125 -35.5 C 24.132812 -35.5 29.304688 -35.546875 32.328125 -35.640625 Z M 32.328125 -35.640625 "/></g></g></g><g fill="rgb(100%, 47.839355%, 0%)" fill-opacity="1"><g transform="translate(41.228011, 71.749652)"><g><path d="M 29.296875 -7.65625 C 29.296875 -4.5625 29.414062 -2.007812 29.65625 0 C 27.375 -0.101562 23.53125 -0.15625 18.125 -0.15625 C 10.8125 -0.15625 5.34375 -0.101562 1.71875 0 L 1.71875 -1 C 2.820312 -1.070312 3.632812 -1.207031 4.15625 -1.40625 C 4.675781 -1.613281 5.023438 -2 5.203125 -2.5625 C 5.390625 -3.132812 5.484375 -4.0625 5.484375 -5.34375 L 5.484375 -30.3125 C 5.484375 -31.582031 5.390625 -32.503906 5.203125 -33.078125 C 5.023438 -33.648438 4.675781 -34.035156 4.15625 -34.234375 C 3.632812 -34.429688 2.820312 -34.566406 1.71875 -34.640625 L 1.71875 -35.640625 C 5.34375 -35.546875 10.8125 -35.5 18.125 -35.5 C 23.0625 -35.5 26.566406 -35.546875 28.640625 -35.640625 C 28.410156 -32.859375 28.296875 -30.375 28.296875 -28.1875 C 28.296875 -26.71875 28.34375 -25.578125 28.4375 -24.765625 L 27.28125 -24.765625 C 26.78125 -28.359375 25.875 -30.875 24.5625 -32.3125 C 23.257812 -33.757812 21.414062 -34.484375 19.03125 -34.484375 L 16.96875 -34.484375 C 15.925781 -34.484375 15.171875 -34.398438 14.703125 -34.234375 C 14.234375 -34.066406 13.910156 -33.738281 13.734375 -33.25 C 13.566406 -32.757812 13.484375 -31.976562 13.484375 -30.90625 L 13.484375 -18.421875 L 15.109375 -18.421875 C 16.878906 -18.421875 18.226562 -19.078125 19.15625 -20.390625 C 20.082031 -21.703125 20.726562 -23.265625 21.09375 -25.078125 L 22.25 -25.078125 C 22.144531 -23.660156 22.09375 -22.082031 22.09375 -20.34375 L 22.09375 -17.921875 C 22.09375 -16.210938 22.195312 -13.832031 22.40625 -10.78125 L 21.25 -10.78125 C 20.539062 -15.207031 18.492188 -17.421875 15.109375 -17.421875 L 13.484375 -17.421875 L 13.484375 -4.734375 C 13.484375 -3.660156 13.566406 -2.878906 13.734375 -2.390625 C 13.910156 -1.898438 14.234375 -1.570312 14.703125 -1.40625 C 15.171875 -1.238281 15.925781 -1.15625 16.96875 -1.15625 L 19.4375 -1.15625 C 21.8125 -1.15625 23.726562 -1.96875 25.1875 -3.59375 C 26.65625 -5.226562 27.691406 -7.988281 28.296875 -11.875 L 29.453125 -11.875 C 29.347656 -10.769531 29.296875 -9.363281 29.296875 -7.65625 Z M 29.296875 -7.65625 "/></g></g></g><g fill="rgb(100%, 47.839355%, 0%)" fill-opacity="1"><g transform="translate(73.145981, 71.749652)"><g><path d="M 14.296875 -36.296875 C 16.046875 -36.296875 17.4375 -36.128906 18.46875 -35.796875 C 19.507812 -35.460938 20.566406 -34.972656 21.640625 -34.328125 C 22.015625 -34.128906 22.34375 -33.960938 22.625 -33.828125 C 22.914062 -33.691406 23.160156 -33.625 23.359375 -33.625 C 23.660156 -33.625 23.894531 -33.800781 24.0625 -34.15625 C 24.226562 -34.507812 24.363281 -35.070312 24.46875 -35.84375 L 25.625 -35.84375 C 25.457031 -33.59375 25.375 -29.765625 25.375 -24.359375 L 24.21875 -24.359375 C 24.082031 -26.171875 23.671875 -27.898438 22.984375 -29.546875 C 22.296875 -31.191406 21.320312 -32.523438 20.0625 -33.546875 C 18.800781 -34.578125 17.332031 -35.09375 15.65625 -35.09375 C 14.007812 -35.09375 12.675781 -34.628906 11.65625 -33.703125 C 10.632812 -32.785156 10.125 -31.535156 10.125 -29.953125 C 10.125 -28.773438 10.375 -27.75 10.875 -26.875 C 11.375 -26.007812 12.078125 -25.210938 12.984375 -24.484375 C 13.890625 -23.765625 15.285156 -22.785156 17.171875 -21.546875 L 18.78125 -20.4375 C 20.757812 -19.125 22.316406 -17.984375 23.453125 -17.015625 C 24.597656 -16.046875 25.53125 -14.914062 26.25 -13.625 C 26.976562 -12.332031 27.34375 -10.828125 27.34375 -9.109375 C 27.34375 -6.960938 26.785156 -5.160156 25.671875 -3.703125 C 24.566406 -2.242188 23.066406 -1.144531 21.171875 -0.40625 C 19.273438 0.332031 17.164062 0.703125 14.84375 0.703125 C 12.96875 0.703125 11.410156 0.535156 10.171875 0.203125 C 8.929688 -0.128906 7.789062 -0.582031 6.75 -1.15625 C 6.007812 -1.625 5.4375 -1.859375 5.03125 -1.859375 C 4.726562 -1.859375 4.492188 -1.679688 4.328125 -1.328125 C 4.160156 -0.984375 4.023438 -0.421875 3.921875 0.359375 L 2.765625 0.359375 C 2.898438 -1.753906 2.96875 -6.285156 2.96875 -13.234375 L 4.125 -13.234375 C 4.363281 -9.484375 5.203125 -6.441406 6.640625 -4.109375 C 8.085938 -1.773438 10.304688 -0.609375 13.296875 -0.609375 C 15.109375 -0.609375 16.597656 -1.09375 17.765625 -2.0625 C 18.941406 -3.039062 19.53125 -4.4375 19.53125 -6.25 C 19.53125 -8.125 18.925781 -9.734375 17.71875 -11.078125 C 16.507812 -12.421875 14.597656 -13.929688 11.984375 -15.609375 C 9.972656 -16.910156 8.363281 -18.046875 7.15625 -19.015625 C 5.945312 -19.992188 4.953125 -21.144531 4.171875 -22.46875 C 3.398438 -23.800781 3.015625 -25.335938 3.015625 -27.078125 C 3.015625 -29.097656 3.523438 -30.800781 4.546875 -32.1875 C 5.578125 -33.582031 6.945312 -34.613281 8.65625 -35.28125 C 10.375 -35.957031 12.253906 -36.296875 14.296875 -36.296875 Z M 14.296875 -36.296875 "/></g></g></g><g fill="rgb(100%, 47.839355%, 0%)" fill-opacity="1"><g transform="translate(102.546767, 71.749652)"><g><path d="M 32.328125 -35.640625 C 32.085938 -32.453125 31.96875 -29.597656 31.96875 -27.078125 C 31.96875 -25.503906 32.019531 -24.234375 32.125 -23.265625 L 30.96875 -23.265625 C 30.15625 -27.390625 29.050781 -30.289062 27.65625 -31.96875 C 26.269531 -33.644531 24.367188 -34.484375 21.953125 -34.484375 L 20.796875 -34.484375 L 20.796875 -5.734375 C 20.796875 -4.328125 20.9375 -3.304688 21.21875 -2.671875 C 21.5 -2.035156 22 -1.609375 22.71875 -1.390625 C 23.445312 -1.171875 24.597656 -1.039062 26.171875 -1 L 26.171875 0 C 21.941406 -0.101562 18.753906 -0.15625 16.609375 -0.15625 C 14.492188 -0.15625 11.425781 -0.101562 7.40625 0 L 7.40625 -1 C 8.976562 -1.039062 10.125 -1.171875 10.84375 -1.390625 C 11.570312 -1.609375 12.078125 -2.035156 12.359375 -2.671875 C 12.640625 -3.304688 12.78125 -4.328125 12.78125 -5.734375 L 12.78125 -34.484375 L 11.6875 -34.484375 C 10.070312 -34.484375 8.703125 -34.128906 7.578125 -33.421875 C 6.453125 -32.722656 5.484375 -31.554688 4.671875 -29.921875 C 3.867188 -28.296875 3.1875 -26.078125 2.625 -23.265625 L 1.453125 -23.265625 C 1.554688 -24.234375 1.609375 -25.503906 1.609375 -27.078125 C 1.609375 -29.597656 1.492188 -32.453125 1.265625 -35.640625 C 4.316406 -35.546875 9.5 -35.5 16.8125 -35.5 C 24.132812 -35.5 29.304688 -35.546875 32.328125 -35.640625 Z M 32.328125 -35.640625 "/></g></g></g><g fill="rgb(100%, 47.839355%, 0%)" fill-opacity="1"><g transform="translate(136.176431, 71.749652)"><g><path d="M 30.765625 -4.234375 C 31.203125 -3.117188 31.703125 -2.3125 32.265625 -1.8125 C 32.835938 -1.3125 33.394531 -1.039062 33.9375 -1 L 33.9375 0 C 31.914062 -0.101562 29.363281 -0.15625 26.28125 -0.15625 C 22.851562 -0.15625 20.300781 -0.101562 18.625 0 L 18.625 -1 C 19.90625 -1.070312 20.8125 -1.234375 21.34375 -1.484375 C 21.882812 -1.734375 22.15625 -2.175781 22.15625 -2.8125 C 22.15625 -3.414062 21.953125 -4.222656 21.546875 -5.234375 L 18.53125 -13.484375 L 7.546875 -13.484375 L 6.25 -10.015625 C 5.300781 -7.597656 4.828125 -5.738281 4.828125 -4.4375 C 4.828125 -3.1875 5.203125 -2.316406 5.953125 -1.828125 C 6.710938 -1.347656 7.832031 -1.070312 9.3125 -1 L 9.3125 0 C 7.03125 -0.101562 4.953125 -0.15625 3.078125 -0.15625 C 1.523438 -0.15625 0.25 -0.101562 -0.75 0 L -0.75 -1 C 0.894531 -1.300781 2.335938 -3.066406 3.578125 -6.296875 L 15.046875 -35.75 C 15.421875 -35.707031 16.007812 -35.6875 16.8125 -35.6875 C 17.613281 -35.6875 18.1875 -35.707031 18.53125 -35.75 Z M 18.171875 -14.5 L 13.1875 -28.09375 L 7.953125 -14.5 Z M 18.171875 -14.5 "/></g></g></g><g fill="rgb(100%, 47.839355%, 0%)" fill-opacity="1"><g transform="translate(169.755751, 71.749652)"><g><path d="M 17.265625 -35.640625 C 23.804688 -35.640625 28.707031 -34.15625 31.96875 -31.1875 C 35.226562 -28.21875 36.859375 -23.894531 36.859375 -18.21875 C 36.859375 -14.5625 36.054688 -11.363281 34.453125 -8.625 C 32.859375 -5.894531 30.5625 -3.773438 27.5625 -2.265625 C 24.5625 -0.753906 20.976562 0 16.8125 0 L 13.6875 -0.046875 C 11.75 -0.117188 10.34375 -0.15625 9.46875 -0.15625 C 6.007812 -0.15625 3.425781 -0.101562 1.71875 0 L 1.71875 -1 C 2.820312 -1.070312 3.632812 -1.207031 4.15625 -1.40625 C 4.675781 -1.613281 5.023438 -2 5.203125 -2.5625 C 5.390625 -3.132812 5.484375 -4.0625 5.484375 -5.34375 L 5.484375 -30.3125 C 5.484375 -31.582031 5.390625 -32.503906 5.203125 -33.078125 C 5.023438 -33.648438 4.675781 -34.035156 4.15625 -34.234375 C 3.632812 -34.429688 2.820312 -34.566406 1.71875 -34.640625 L 1.71875 -35.640625 C 3.125 -35.546875 5.148438 -35.5 7.796875 -35.5 L 9.359375 -35.5 L 11.375 -35.546875 C 14.125 -35.609375 16.085938 -35.640625 17.265625 -35.640625 Z M 17.21875 -34.734375 C 16.175781 -34.734375 15.394531 -34.613281 14.875 -34.375 C 14.351562 -34.144531 13.988281 -33.726562 13.78125 -33.125 C 13.582031 -32.519531 13.484375 -31.613281 13.484375 -30.40625 L 13.484375 -5.234375 C 13.484375 -4.023438 13.582031 -3.117188 13.78125 -2.515625 C 13.988281 -1.910156 14.351562 -1.488281 14.875 -1.25 C 15.394531 -1.019531 16.191406 -0.90625 17.265625 -0.90625 C 21.328125 -0.90625 24.210938 -2.320312 25.921875 -5.15625 C 27.640625 -8 28.5 -12.285156 28.5 -18.015625 C 28.5 -23.753906 27.613281 -27.972656 25.84375 -30.671875 C 24.082031 -33.378906 21.207031 -34.734375 17.21875 -34.734375 Z M 17.21875 -34.734375 "/></g></g></g><g fill="rgb(100%, 47.839355%, 0%)" fill-opacity="1"><g transform="translate(208.822549, 71.749652)"><g><path d="M 19.984375 -36.34375 C 23.546875 -36.34375 26.660156 -35.617188 29.328125 -34.171875 C 31.992188 -32.734375 34.066406 -30.644531 35.546875 -27.90625 C 37.023438 -25.175781 37.765625 -21.914062 37.765625 -18.125 C 37.765625 -14.4375 37.007812 -11.164062 35.5 -8.3125 C 33.988281 -5.457031 31.878906 -3.238281 29.171875 -1.65625 C 26.472656 -0.0820312 23.394531 0.703125 19.9375 0.703125 C 16.375 0.703125 13.257812 -0.015625 10.59375 -1.453125 C 7.925781 -2.898438 5.851562 -4.988281 4.375 -7.71875 C 2.90625 -10.457031 2.171875 -13.722656 2.171875 -17.515625 C 2.171875 -21.210938 2.925781 -24.484375 4.4375 -27.328125 C 5.945312 -30.179688 8.050781 -32.394531 10.75 -33.96875 C 13.445312 -35.550781 16.523438 -36.34375 19.984375 -36.34375 Z M 19.78125 -35.4375 C 17.9375 -35.4375 16.304688 -34.691406 14.890625 -33.203125 C 13.484375 -31.710938 12.398438 -29.625 11.640625 -26.9375 C 10.890625 -24.25 10.515625 -21.175781 10.515625 -17.71875 C 10.515625 -14.226562 10.941406 -11.15625 11.796875 -8.5 C 12.660156 -5.851562 13.820312 -3.804688 15.28125 -2.359375 C 16.738281 -0.921875 18.359375 -0.203125 20.140625 -0.203125 C 21.984375 -0.203125 23.609375 -0.945312 25.015625 -2.4375 C 26.429688 -3.9375 27.515625 -6.023438 28.265625 -8.703125 C 29.023438 -11.390625 29.40625 -14.460938 29.40625 -17.921875 C 29.40625 -21.410156 28.972656 -24.476562 28.109375 -27.125 C 27.253906 -29.78125 26.097656 -31.828125 24.640625 -33.265625 C 23.179688 -34.710938 21.5625 -35.4375 19.78125 -35.4375 Z M 19.78125 -35.4375 "/></g></g></g><g fill="rgb(100%, 47.839355%, 0%)" fill-opacity="1"><g transform="translate(248.745192, 71.749652)"><g/></g></g><g fill="rgb(100%, 47.839355%, 0%)" fill-opacity="1"><g transform="translate(260.475294, 71.749652)"><g><path d="M 29.296875 -7.65625 C 29.296875 -4.5625 29.414062 -2.007812 29.65625 0 C 27.375 -0.101562 23.53125 -0.15625 18.125 -0.15625 C 10.8125 -0.15625 5.34375 -0.101562 1.71875 0 L 1.71875 -1 C 2.820312 -1.070312 3.632812 -1.207031 4.15625 -1.40625 C 4.675781 -1.613281 5.023438 -2 5.203125 -2.5625 C 5.390625 -3.132812 5.484375 -4.0625 5.484375 -5.34375 L 5.484375 -30.3125 C 5.484375 -31.582031 5.390625 -32.503906 5.203125 -33.078125 C 5.023438 -33.648438 4.675781 -34.035156 4.15625 -34.234375 C 3.632812 -34.429688 2.820312 -34.566406 1.71875 -34.640625 L 1.71875 -35.640625 C 5.34375 -35.546875 10.8125 -35.5 18.125 -35.5 C 23.0625 -35.5 26.566406 -35.546875 28.640625 -35.640625 C 28.410156 -32.859375 28.296875 -30.375 28.296875 -28.1875 C 28.296875 -26.71875 28.34375 -25.578125 28.4375 -24.765625 L 27.28125 -24.765625 C 26.78125 -28.359375 25.875 -30.875 24.5625 -32.3125 C 23.257812 -33.757812 21.414062 -34.484375 19.03125 -34.484375 L 16.96875 -34.484375 C 15.925781 -34.484375 15.171875 -34.398438 14.703125 -34.234375 C 14.234375 -34.066406 13.910156 -33.738281 13.734375 -33.25 C 13.566406 -32.757812 13.484375 -31.976562 13.484375 -30.90625 L 13.484375 -18.421875 L 15.109375 -18.421875 C 16.878906 -18.421875 18.226562 -19.078125 19.15625 -20.390625 C 20.082031 -21.703125 20.726562 -23.265625 21.09375 -25.078125 L 22.25 -25.078125 C 22.144531 -23.660156 22.09375 -22.082031 22.09375 -20.34375 L 22.09375 -17.921875 C 22.09375 -16.210938 22.195312 -13.832031 22.40625 -10.78125 L 21.25 -10.78125 C 20.539062 -15.207031 18.492188 -17.421875 15.109375 -17.421875 L 13.484375 -17.421875 L 13.484375 -4.734375 C 13.484375 -3.660156 13.566406 -2.878906 13.734375 -2.390625 C 13.910156 -1.898438 14.234375 -1.570312 14.703125 -1.40625 C 15.171875 -1.238281 15.925781 -1.15625 16.96875 -1.15625 L 19.4375 -1.15625 C 21.8125 -1.15625 23.726562 -1.96875 25.1875 -3.59375 C 26.65625 -5.226562 27.691406 -7.988281 28.296875 -11.875 L 29.453125 -11.875 C 29.347656 -10.769531 29.296875 -9.363281 29.296875 -7.65625 Z M 29.296875 -7.65625 "/></g></g></g><g fill="rgb(100%, 47.839355%, 0%)" fill-opacity="1"><g transform="translate(6.590535, 119.74965)"><g><path d="M 30.765625 -4.234375 C 31.203125 -3.117188 31.703125 -2.3125 32.265625 -1.8125 C 32.835938 -1.3125 33.394531 -1.039062 33.9375 -1 L 33.9375 0 C 31.914062 -0.101562 29.363281 -0.15625 26.28125 -0.15625 C 22.851562 -0.15625 20.300781 -0.101562 18.625 0 L 18.625 -1 C 19.90625 -1.070312 20.8125 -1.234375 21.34375 -1.484375 C 21.882812 -1.734375 22.15625 -2.175781 22.15625 -2.8125 C 22.15625 -3.414062 21.953125 -4.222656 21.546875 -5.234375 L 18.53125 -13.484375 L 7.546875 -13.484375 L 6.25 -10.015625 C 5.300781 -7.597656 4.828125 -5.738281 4.828125 -4.4375 C 4.828125 -3.1875 5.203125 -2.316406 5.953125 -1.828125 C 6.710938 -1.347656 7.832031 -1.070312 9.3125 -1 L 9.3125 0 C 7.03125 -0.101562 4.953125 -0.15625 3.078125 -0.15625 C 1.523438 -0.15625 0.25 -0.101562 -0.75 0 L -0.75 -1 C 0.894531 -1.300781 2.335938 -3.066406 3.578125 -6.296875 L 15.046875 -35.75 C 15.421875 -35.707031 16.007812 -35.6875 16.8125 -35.6875 C 17.613281 -35.6875 18.1875 -35.707031 18.53125 -35.75 Z M 18.171875 -14.5 L 13.1875 -28.09375 L 7.953125 -14.5 Z M 18.171875 -14.5 "/></g></g></g><g fill="rgb(100%, 47.839355%, 0%)" fill-opacity="1"><g transform="translate(40.169855, 119.74965)"><g><path d="M 13.484375 -14.390625 L 13.484375 -5.640625 C 13.484375 -4.296875 13.625 -3.3125 13.90625 -2.6875 C 14.195312 -2.070312 14.703125 -1.660156 15.421875 -1.453125 C 16.148438 -1.253906 17.300781 -1.140625 18.875 -1.109375 L 18.875 0 C 14.75 -0.101562 11.679688 -0.15625 9.671875 -0.15625 C 7.992188 -0.15625 5.878906 -0.117188 3.328125 -0.046875 L 1.71875 0 L 1.71875 -1 C 2.820312 -1.070312 3.632812 -1.207031 4.15625 -1.40625 C 4.675781 -1.613281 5.023438 -2 5.203125 -2.5625 C 5.390625 -3.132812 5.484375 -4.0625 5.484375 -5.34375 L 5.484375 -30.3125 C 5.484375 -31.582031 5.390625 -32.503906 5.203125 -33.078125 C 5.023438 -33.648438 4.675781 -34.035156 4.15625 -34.234375 C 3.632812 -34.429688 2.820312 -34.566406 1.71875 -34.640625 L 1.71875 -35.640625 C 3.425781 -35.546875 5.972656 -35.5 9.359375 -35.5 L 14.953125 -35.546875 C 15.617188 -35.578125 16.390625 -35.59375 17.265625 -35.59375 C 21.796875 -35.59375 25.253906 -34.691406 27.640625 -32.890625 C 30.023438 -31.097656 31.21875 -28.691406 31.21875 -25.671875 C 31.21875 -23.828125 30.742188 -22.054688 29.796875 -20.359375 C 28.859375 -18.671875 27.273438 -17.253906 25.046875 -16.109375 C 22.816406 -14.960938 19.851562 -14.390625 16.15625 -14.390625 Z M 16.609375 -34.640625 C 15.703125 -34.640625 15.039062 -34.519531 14.625 -34.28125 C 14.207031 -34.050781 13.910156 -33.632812 13.734375 -33.03125 C 13.566406 -32.425781 13.484375 -31.519531 13.484375 -30.3125 L 13.484375 -15.40625 L 15.65625 -15.40625 C 18.375 -15.40625 20.253906 -16.273438 21.296875 -18.015625 C 22.335938 -19.765625 22.859375 -22.132812 22.859375 -25.125 C 22.859375 -28.375 22.378906 -30.769531 21.421875 -32.3125 C 20.460938 -33.863281 18.859375 -34.640625 16.609375 -34.640625 Z M 16.609375 -34.640625 "/></g></g></g><g fill="rgb(100%, 47.839355%, 0%)" fill-opacity="1"><g transform="translate(72.440235, 119.74965)"><g><path d="M 35.84375 -2.21875 C 34.9375 -1.175781 33.960938 -0.429688 32.921875 0.015625 C 31.878906 0.472656 30.625 0.703125 29.15625 0.703125 C 27.207031 0.703125 25.671875 0.289062 24.546875 -0.53125 C 23.421875 -1.351562 22.691406 -2.753906 22.359375 -4.734375 L 21.453125 -9.765625 C 21.015625 -12.210938 20.484375 -14.015625 19.859375 -15.171875 C 19.234375 -16.335938 18.203125 -16.921875 16.765625 -16.921875 L 13.484375 -16.921875 L 13.484375 -5.34375 C 13.484375 -4.0625 13.578125 -3.132812 13.765625 -2.5625 C 13.953125 -2 14.296875 -1.613281 14.796875 -1.40625 C 15.304688 -1.207031 16.128906 -1.070312 17.265625 -1 L 17.265625 0 C 15.453125 -0.101562 12.921875 -0.15625 9.671875 -0.15625 C 6.078125 -0.15625 3.425781 -0.101562 1.71875 0 L 1.71875 -1 C 2.820312 -1.070312 3.632812 -1.207031 4.15625 -1.40625 C 4.675781 -1.613281 5.023438 -2 5.203125 -2.5625 C 5.390625 -3.132812 5.484375 -4.0625 5.484375 -5.34375 L 5.484375 -30.3125 C 5.484375 -31.582031 5.390625 -32.503906 5.203125 -33.078125 C 5.023438 -33.648438 4.675781 -34.035156 4.15625 -34.234375 C 3.632812 -34.429688 2.820312 -34.566406 1.71875 -34.640625 L 1.71875 -35.640625 C 3.425781 -35.546875 5.972656 -35.5 9.359375 -35.5 L 14.953125 -35.546875 C 15.617188 -35.578125 16.390625 -35.59375 17.265625 -35.59375 C 21.898438 -35.59375 25.382812 -34.835938 27.71875 -33.328125 C 30.050781 -31.816406 31.21875 -29.648438 31.21875 -26.828125 C 31.21875 -24.453125 30.34375 -22.359375 28.59375 -20.546875 C 26.851562 -18.734375 23.96875 -17.585938 19.9375 -17.109375 C 22.957031 -16.847656 25.203125 -16.195312 26.671875 -15.15625 C 28.148438 -14.113281 29.109375 -12.550781 29.546875 -10.46875 L 30.703125 -5.28125 C 30.972656 -3.9375 31.285156 -2.992188 31.640625 -2.453125 C 31.992188 -1.921875 32.488281 -1.65625 33.125 -1.65625 C 33.53125 -1.695312 33.875 -1.800781 34.15625 -1.96875 C 34.445312 -2.132812 34.773438 -2.414062 35.140625 -2.8125 Z M 16.609375 -34.640625 C 15.703125 -34.640625 15.039062 -34.519531 14.625 -34.28125 C 14.207031 -34.050781 13.910156 -33.632812 13.734375 -33.03125 C 13.566406 -32.425781 13.484375 -31.519531 13.484375 -30.3125 L 13.484375 -17.921875 L 15.65625 -17.921875 C 18.40625 -17.921875 20.289062 -18.648438 21.3125 -20.109375 C 22.34375 -21.566406 22.859375 -23.625 22.859375 -26.28125 C 22.859375 -29.03125 22.367188 -31.109375 21.390625 -32.515625 C 20.421875 -33.929688 18.828125 -34.640625 16.609375 -34.640625 Z M 16.609375 -34.640625 "/></g></g></g><g fill="rgb(100%, 47.839355%, 0%)" fill-opacity="1"><g transform="translate(107.278155, 119.74965)"><g><path d="M 19.984375 -36.34375 C 23.546875 -36.34375 26.660156 -35.617188 29.328125 -34.171875 C 31.992188 -32.734375 34.066406 -30.644531 35.546875 -27.90625 C 37.023438 -25.175781 37.765625 -21.914062 37.765625 -18.125 C 37.765625 -14.4375 37.007812 -11.164062 35.5 -8.3125 C 33.988281 -5.457031 31.878906 -3.238281 29.171875 -1.65625 C 26.472656 -0.0820312 23.394531 0.703125 19.9375 0.703125 C 16.375 0.703125 13.257812 -0.015625 10.59375 -1.453125 C 7.925781 -2.898438 5.851562 -4.988281 4.375 -7.71875 C 2.90625 -10.457031 2.171875 -13.722656 2.171875 -17.515625 C 2.171875 -21.210938 2.925781 -24.484375 4.4375 -27.328125 C 5.945312 -30.179688 8.050781 -32.394531 10.75 -33.96875 C 13.445312 -35.550781 16.523438 -36.34375 19.984375 -36.34375 Z M 19.78125 -35.4375 C 17.9375 -35.4375 16.304688 -34.691406 14.890625 -33.203125 C 13.484375 -31.710938 12.398438 -29.625 11.640625 -26.9375 C 10.890625 -24.25 10.515625 -21.175781 10.515625 -17.71875 C 10.515625 -14.226562 10.941406 -11.15625 11.796875 -8.5 C 12.660156 -5.851562 13.820312 -3.804688 15.28125 -2.359375 C 16.738281 -0.921875 18.359375 -0.203125 20.140625 -0.203125 C 21.984375 -0.203125 23.609375 -0.945312 25.015625 -2.4375 C 26.429688 -3.9375 27.515625 -6.023438 28.265625 -8.703125 C 29.023438 -11.390625 29.40625 -14.460938 29.40625 -17.921875 C 29.40625 -21.410156 28.972656 -24.476562 28.109375 -27.125 C 27.253906 -29.78125 26.097656 -31.828125 24.640625 -33.265625 C 23.179688 -34.710938 21.5625 -35.4375 19.78125 -35.4375 Z M 19.78125 -35.4375 "/></g></g></g><g fill="rgb(100%, 47.839355%, 0%)" fill-opacity="1"><g transform="translate(147.200798, 119.74965)"><g><path d="M 30.3125 -35.5 C 31.851562 -35.5 33.128906 -35.546875 34.140625 -35.640625 L 34.140625 -34.640625 C 33.296875 -34.335938 32.46875 -33.695312 31.65625 -32.71875 C 30.851562 -31.75 30.132812 -30.390625 29.5 -28.640625 L 18.875 0.09375 C 18.507812 0.0625 17.921875 0.046875 17.109375 0.046875 C 16.335938 0.046875 15.769531 0.0625 15.40625 0.09375 L 2.5625 -31.421875 C 2.125 -32.523438 1.617188 -33.328125 1.046875 -33.828125 C 0.484375 -34.335938 -0.0664062 -34.609375 -0.609375 -34.640625 L -0.609375 -35.640625 C 1.410156 -35.546875 3.960938 -35.5 7.046875 -35.5 C 10.503906 -35.5 13.054688 -35.546875 14.703125 -35.640625 L 14.703125 -34.640625 C 13.421875 -34.566406 12.507812 -34.410156 11.96875 -34.171875 C 11.4375 -33.941406 11.171875 -33.476562 11.171875 -32.78125 C 11.171875 -32.207031 11.375 -31.414062 11.78125 -30.40625 L 20.640625 -7.859375 L 26.828125 -24.5625 C 27.773438 -27.144531 28.25 -29.191406 28.25 -30.703125 C 28.25 -32.046875 27.882812 -33.019531 27.15625 -33.625 C 26.4375 -34.226562 25.390625 -34.566406 24.015625 -34.640625 L 24.015625 -35.640625 C 26.296875 -35.546875 28.394531 -35.5 30.3125 -35.5 Z M 30.3125 -35.5 "/></g></g></g><g fill="rgb(100%, 47.839355%, 0%)" fill-opacity="1"><g transform="translate(180.830461, 119.74965)"><g><path d="M 30.765625 -4.234375 C 31.203125 -3.117188 31.703125 -2.3125 32.265625 -1.8125 C 32.835938 -1.3125 33.394531 -1.039062 33.9375 -1 L 33.9375 0 C 31.914062 -0.101562 29.363281 -0.15625 26.28125 -0.15625 C 22.851562 -0.15625 20.300781 -0.101562 18.625 0 L 18.625 -1 C 19.90625 -1.070312 20.8125 -1.234375 21.34375 -1.484375 C 21.882812 -1.734375 22.15625 -2.175781 22.15625 -2.8125 C 22.15625 -3.414062 21.953125 -4.222656 21.546875 -5.234375 L 18.53125 -13.484375 L 7.546875 -13.484375 L 6.25 -10.015625 C 5.300781 -7.597656 4.828125 -5.738281 4.828125 -4.4375 C 4.828125 -3.1875 5.203125 -2.316406 5.953125 -1.828125 C 6.710938 -1.347656 7.832031 -1.070312 9.3125 -1 L 9.3125 0 C 7.03125 -0.101562 4.953125 -0.15625 3.078125 -0.15625 C 1.523438 -0.15625 0.25 -0.101562 -0.75 0 L -0.75 -1 C 0.894531 -1.300781 2.335938 -3.066406 3.578125 -6.296875 L 15.046875 -35.75 C 15.421875 -35.707031 16.007812 -35.6875 16.8125 -35.6875 C 17.613281 -35.6875 18.1875 -35.707031 18.53125 -35.75 Z M 18.171875 -14.5 L 13.1875 -28.09375 L 7.953125 -14.5 Z M 18.171875 -14.5 "/></g></g></g><g fill="rgb(100%, 47.839355%, 0%)" fill-opacity="1"><g transform="translate(214.409782, 119.74965)"><g><path d="M 17.265625 -35.640625 C 23.804688 -35.640625 28.707031 -34.15625 31.96875 -31.1875 C 35.226562 -28.21875 36.859375 -23.894531 36.859375 -18.21875 C 36.859375 -14.5625 36.054688 -11.363281 34.453125 -8.625 C 32.859375 -5.894531 30.5625 -3.773438 27.5625 -2.265625 C 24.5625 -0.753906 20.976562 0 16.8125 0 L 13.6875 -0.046875 C 11.75 -0.117188 10.34375 -0.15625 9.46875 -0.15625 C 6.007812 -0.15625 3.425781 -0.101562 1.71875 0 L 1.71875 -1 C 2.820312 -1.070312 3.632812 -1.207031 4.15625 -1.40625 C 4.675781 -1.613281 5.023438 -2 5.203125 -2.5625 C 5.390625 -3.132812 5.484375 -4.0625 5.484375 -5.34375 L 5.484375 -30.3125 C 5.484375 -31.582031 5.390625 -32.503906 5.203125 -33.078125 C 5.023438 -33.648438 4.675781 -34.035156 4.15625 -34.234375 C 3.632812 -34.429688 2.820312 -34.566406 1.71875 -34.640625 L 1.71875 -35.640625 C 3.125 -35.546875 5.148438 -35.5 7.796875 -35.5 L 9.359375 -35.5 L 11.375 -35.546875 C 14.125 -35.609375 16.085938 -35.640625 17.265625 -35.640625 Z M 17.21875 -34.734375 C 16.175781 -34.734375 15.394531 -34.613281 14.875 -34.375 C 14.351562 -34.144531 13.988281 -33.726562 13.78125 -33.125 C 13.582031 -32.519531 13.484375 -31.613281 13.484375 -30.40625 L 13.484375 -5.234375 C 13.484375 -4.023438 13.582031 -3.117188 13.78125 -2.515625 C 13.988281 -1.910156 14.351562 -1.488281 14.875 -1.25 C 15.394531 -1.019531 16.191406 -0.90625 17.265625 -0.90625 C 21.328125 -0.90625 24.210938 -2.320312 25.921875 -5.15625 C 27.640625 -8 28.5 -12.285156 28.5 -18.015625 C 28.5 -23.753906 27.613281 -27.972656 25.84375 -30.671875 C 24.082031 -33.378906 21.207031 -34.734375 17.21875 -34.734375 Z M 17.21875 -34.734375 "/></g></g></g><g fill="rgb(100%, 47.839355%, 0%)" fill-opacity="1"><g transform="translate(253.476567, 119.74965)"><g><path d="M 19.984375 -36.34375 C 23.546875 -36.34375 26.660156 -35.617188 29.328125 -34.171875 C 31.992188 -32.734375 34.066406 -30.644531 35.546875 -27.90625 C 37.023438 -25.175781 37.765625 -21.914062 37.765625 -18.125 C 37.765625 -14.4375 37.007812 -11.164062 35.5 -8.3125 C 33.988281 -5.457031 31.878906 -3.238281 29.171875 -1.65625 C 26.472656 -0.0820312 23.394531 0.703125 19.9375 0.703125 C 16.375 0.703125 13.257812 -0.015625 10.59375 -1.453125 C 7.925781 -2.898438 5.851562 -4.988281 4.375 -7.71875 C 2.90625 -10.457031 2.171875 -13.722656 2.171875 -17.515625 C 2.171875 -21.210938 2.925781 -24.484375 4.4375 -27.328125 C 5.945312 -30.179688 8.050781 -32.394531 10.75 -33.96875 C 13.445312 -35.550781 16.523438 -36.34375 19.984375 -36.34375 Z M 19.78125 -35.4375 C 17.9375 -35.4375 16.304688 -34.691406 14.890625 -33.203125 C 13.484375 -31.710938 12.398438 -29.625 11.640625 -26.9375 C 10.890625 -24.25 10.515625 -21.175781 10.515625 -17.71875 C 10.515625 -14.226562 10.941406 -11.15625 11.796875 -8.5 C 12.660156 -5.851562 13.820312 -3.804688 15.28125 -2.359375 C 16.738281 -0.921875 18.359375 -0.203125 20.140625 -0.203125 C 21.984375 -0.203125 23.609375 -0.945312 25.015625 -2.4375 C 26.429688 -3.9375 27.515625 -6.023438 28.265625 -8.703125 C 29.023438 -11.390625 29.40625 -14.460938 29.40625 -17.921875 C 29.40625 -21.410156 28.972656 -24.476562 28.109375 -27.125 C 27.253906 -29.78125 26.097656 -31.828125 24.640625 -33.265625 C 23.179688 -34.710938 21.5625 -35.4375 19.78125 -35.4375 Z M 19.78125 -35.4375 "/></g></g></g></svg>